# xmcd
#
# Track frame offsets: 
#        150
#        13050
#        25174
#        43744
#        52271
#        60420
#        72008
#        85208
#        95535
#        111261
#        123215
#        134465
#        144440
#        154027
#        167932
#        179444
#        188201
#        198455
#        210321
#        217724
#        229247
#        242567
#        256769
#        267167
#        280248
#        290748
#        301043
#        316629
#
# Disc length: 4336 seconds
#
# Revision: 0
# Processed by: cddbd v1.5.2PL0 Copyright (c) Steve Scherf et al.
# Submitted via: ExactAudioCopy v1.3
#
DISCID=8d10ee1c
DTITLE=The Stoneman Family - The Stoneman Family_28 Classics
DYEAR=2008
DGENRE=Bluegrass
TTITLE0=One Hundred Years Ago
TTITLE1=Life's Railway to Heaven
TTITLE2=When the Snowflakes Fall Again
TTITLE3=Turn Me Loose
TTITLE4=In the Sweet Bye and Bye
TTITLE5=Orange Blossom Breakdown_Instrumental
TTITLE6=Family Life
TTITLE7=Little Suzie
TTITLE8=Somebody's Waiting for Me
TTITLE9=On the Banks of the Washbash
TTITLE10=That Pal of Mine
TTITLE11=Snow Deer
TTITLE12=Springtime in the Mountains
TTITLE13=Lee Highway Blues_Instrumental
TTITLE14=Going Home
TTITLE15=Nobody's Darling But Mine
TTITLE16=When the Roses Bloom Again
TTITLE17=I Want to Wander Down Yonder
TTITLE18=Lonesome Banjo_Instrumental
TTITLE19=Guilty
TTITLE20=The Wreck of the Number Nine
TTITLE21=Wild Bill Hickok
TTITLE22=It's Rain_Instrumental
TTITLE23=The Heroes of Bataan
TTITLE24=Out of School
TTITLE25=Girl from Galax_Instrumental
TTITLE26=The Sinking of the Titanic
TTITLE27=Uncloudy Day
EXTD=
EXTT0=
EXTT1=
EXTT2=
EXTT3=
EXTT4=
EXTT5=
EXTT6=
EXTT7=
EXTT8=
EXTT9=
EXTT10=
EXTT11=
EXTT12=
EXTT13=
EXTT14=
EXTT15=
EXTT16=
EXTT17=
EXTT18=
EXTT19=
EXTT20=
EXTT21=
EXTT22=
EXTT23=
EXTT24=
EXTT25=
EXTT26=
EXTT27=
PLAYORDER=
